<mxfile host="app.diagrams.net" modified="2024-06-30T02:22:55.589Z" agent="Mozilla/5.0 (Windows NT 10.0; Win64; x64) AppleWebKit/537.36 (KHTML, like Gecko) Chrome/126.0.0.0 Safari/537.36" etag="V_d8ENgi9FQU90ZLhD7M" version="24.6.4" type="device">
  <diagram name="Page-1" id="d315yg6A7RpOQ85-J911">
    <mxGraphModel dx="960" dy="980" grid="1" gridSize="10" guides="1" tooltips="1" connect="1" arrows="1" fold="1" page="1" pageScale="1" pageWidth="850" pageHeight="1100" math="0" shadow="0">
      <root>
        <mxCell id="0" />
        <mxCell id="1" parent="0" />
        <mxCell id="yRFhUIHEJlfa4HvNp_iO-1" value="&lt;div style=&quot;font-size: 14px;&quot;&gt;&lt;br&gt;&lt;/div&gt;&lt;div style=&quot;text-align: left; font-size: 14px;&quot;&gt;&lt;b style=&quot;font-size: 14px;&quot;&gt;&amp;nbsp; &amp;nbsp; &amp;nbsp; &amp;nbsp; &amp;nbsp; &amp;nbsp; &amp;nbsp; &amp;nbsp; &amp;nbsp; &amp;nbsp; &amp;nbsp; &amp;nbsp; &amp;nbsp; &amp;nbsp; &amp;nbsp; &amp;nbsp; &amp;nbsp; &amp;nbsp; &amp;nbsp; &amp;nbsp; &amp;nbsp; &amp;nbsp; &amp;nbsp; &amp;nbsp; &amp;nbsp; &amp;nbsp; &amp;nbsp; &amp;nbsp; Generator&lt;/b&gt;&lt;/div&gt;&lt;div style=&quot;text-align: left; font-size: 14px;&quot;&gt;&lt;br&gt;&lt;/div&gt;&lt;div style=&quot;text-align: left; font-size: 14px;&quot;&gt;&lt;br style=&quot;font-size: 14px;&quot;&gt;&lt;/div&gt;&lt;div style=&quot;text-align: left; font-size: 14px;&quot;&gt;&lt;br&gt;&lt;/div&gt;&lt;div style=&quot;text-align: left; font-size: 14px;&quot;&gt;&lt;br&gt;&lt;/div&gt;&lt;div style=&quot;text-align: left; font-size: 14px;&quot;&gt;&lt;br&gt;&lt;/div&gt;&lt;div style=&quot;text-align: left; font-size: 14px;&quot;&gt;&lt;br&gt;&lt;/div&gt;&lt;div style=&quot;text-align: left; font-size: 14px;&quot;&gt;&lt;br&gt;&lt;/div&gt;&lt;div style=&quot;text-align: left; font-size: 14px;&quot;&gt;std::coroutine_handle&amp;lt;promise_type&amp;gt; handle;&amp;nbsp; &amp;nbsp; &amp;nbsp; &amp;nbsp; &amp;nbsp; &amp;nbsp; &amp;nbsp; &amp;nbsp; &amp;nbsp; &amp;nbsp; &amp;nbsp; &amp;nbsp; &amp;nbsp; &amp;nbsp; &amp;nbsp; &amp;nbsp; &amp;nbsp; &amp;nbsp; &amp;nbsp; &amp;nbsp; &amp;nbsp; &amp;nbsp; &amp;nbsp; &amp;nbsp; &amp;nbsp;&amp;nbsp;&lt;br style=&quot;font-size: 14px;&quot;&gt;&lt;/div&gt;&lt;div style=&quot;text-align: left; font-size: 14px;&quot;&gt;initial_suspend()&lt;/div&gt;&lt;div style=&quot;text-align: left; font-size: 14px;&quot;&gt;final_suspend()&lt;/div&gt;&lt;div style=&quot;text-align: left; font-size: 14px;&quot;&gt;&amp;nbsp;&lt;b&gt; &amp;nbsp; ......&lt;/b&gt;&lt;/div&gt;&lt;div style=&quot;text-align: left; font-size: 14px;&quot;&gt;&lt;span style=&quot;background-color: initial; font-size: 14px;&quot;&gt;&amp;nbsp; &amp;nbsp; &amp;nbsp; &amp;nbsp; &amp;nbsp; &amp;nbsp; &amp;nbsp;&amp;nbsp;&lt;/span&gt;&lt;/div&gt;" style="rounded=1;whiteSpace=wrap;html=1;fontSize=14;" vertex="1" parent="1">
          <mxGeometry x="110" y="180" width="500" height="220" as="geometry" />
        </mxCell>
        <mxCell id="yRFhUIHEJlfa4HvNp_iO-2" value="&lt;div style=&quot;font-size: 14px;&quot;&gt;&lt;b style=&quot;font-size: 14px;&quot;&gt;promise_type&lt;/b&gt;&lt;/div&gt;&lt;div style=&quot;text-align: left; font-size: 14px;&quot;&gt;Generator get_return_object{&lt;/div&gt;&lt;div style=&quot;text-align: left; font-size: 14px;&quot;&gt;&lt;span style=&quot;background-color: initial; font-size: 14px;&quot;&gt;&amp;nbsp; &amp;nbsp;&amp;nbsp;&lt;/span&gt;&lt;span style=&quot;background-color: initial; text-align: center; font-size: 14px;&quot;&gt;return Generator(&amp;nbsp;&lt;/span&gt;&lt;span style=&quot;background-color: initial; font-size: 14px;&quot;&gt;std::coroutine_handle&amp;lt;promise_type&amp;gt;::from_promise(*this));&lt;/span&gt;&lt;/div&gt;&lt;div style=&quot;text-align: left; font-size: 14px;&quot;&gt;}&lt;/div&gt;&lt;div style=&quot;text-align: left; font-size: 14px;&quot;&gt;&amp;nbsp; &amp;nbsp;suspend_always await_transform(int value)&lt;/div&gt;" style="rounded=1;whiteSpace=wrap;html=1;fontSize=14;" vertex="1" parent="1">
          <mxGeometry x="120" y="210" width="470" height="100" as="geometry" />
        </mxCell>
        <mxCell id="yRFhUIHEJlfa4HvNp_iO-3" value="&lt;div style=&quot;font-size: 14px;&quot;&gt;&lt;span style=&quot;background-color: initial;&quot;&gt;1) from *this(promise) generate handle. (&lt;/span&gt;&lt;b style=&quot;background-color: initial;&quot;&gt;starting point&lt;/b&gt;&lt;span style=&quot;background-color: initial;&quot;&gt;)&lt;/span&gt;&lt;br&gt;&lt;/div&gt;&lt;div style=&quot;font-size: 14px;&quot;&gt;&lt;span style=&quot;background-color: initial;&quot;&gt;2) fill handle into the Generator in get_return_object&lt;/span&gt;&lt;/div&gt;&lt;div style=&quot;font-size: 14px;&quot;&gt;3) you can think generator as a kind of std::future.&lt;/div&gt;&lt;div style=&quot;font-size: 14px;&quot;&gt;4) In coroutine, through await_transform pass value into the promise.&lt;/div&gt;&lt;div style=&quot;font-size: 14px;&quot;&gt;5) In caller, use handle to get promise and to control coroutine(resume, destory..).&lt;/div&gt;&lt;div style=&quot;font-size: 14px;&quot;&gt;6) the same handle in generate also pass into awaiter by&amp;nbsp;awaiter.await_suspend(handle)&lt;/div&gt;" style="shape=note;size=15;align=left;spacingLeft=10;html=1;whiteSpace=wrap;fontSize=14;" vertex="1" parent="1">
          <mxGeometry x="230" y="370" width="560" height="110" as="geometry" />
        </mxCell>
        <mxCell id="yRFhUIHEJlfa4HvNp_iO-4" value="" style="edgeStyle=none;endArrow=none;exitX=0.4;exitY=0;dashed=1;html=1;rounded=0;fontSize=14;" edge="1" source="yRFhUIHEJlfa4HvNp_iO-3" parent="1">
          <mxGeometry x="1" relative="1" as="geometry">
            <mxPoint x="520" y="310" as="targetPoint" />
          </mxGeometry>
        </mxCell>
        <mxCell id="yRFhUIHEJlfa4HvNp_iO-8" value="&lt;b style=&quot;font-size: 14px;&quot;&gt;caller&lt;/b&gt;&lt;div style=&quot;font-size: 14px;&quot;&gt;gen= sequence&lt;br style=&quot;font-size: 14px;&quot;&gt;&lt;div style=&quot;font-size: 14px;&quot;&gt;gen.promise()&amp;nbsp;&amp;nbsp;&lt;/div&gt;&lt;div style=&quot;font-size: 14px;&quot;&gt;gen.resume()&amp;nbsp;&amp;nbsp;&lt;/div&gt;&lt;/div&gt;" style="rounded=1;whiteSpace=wrap;html=1;fontSize=14;" vertex="1" parent="1">
          <mxGeometry x="635" y="270" width="140" height="90" as="geometry" />
        </mxCell>
        <mxCell id="yRFhUIHEJlfa4HvNp_iO-9" value="&lt;b style=&quot;font-size: 14px;&quot;&gt;sequence(coroutine)&lt;/b&gt;&lt;div style=&quot;font-size: 14px;&quot;&gt;&lt;span style=&quot;background-color: initial; font-size: 14px;&quot;&gt;&amp;nbsp;co_await i++&amp;nbsp; &amp;nbsp; &amp;nbsp; &amp;nbsp; &amp;nbsp; &amp;nbsp; &amp;nbsp; &amp;nbsp; &amp;nbsp; &amp;nbsp; &amp;nbsp; &amp;nbsp; &amp;nbsp; &amp;nbsp; &amp;nbsp; &amp;nbsp;&amp;nbsp;&lt;/span&gt;&lt;/div&gt;" style="rounded=1;whiteSpace=wrap;html=1;fontSize=14;" vertex="1" parent="1">
          <mxGeometry x="630" y="190" width="150" height="70" as="geometry" />
        </mxCell>
        <mxCell id="yRFhUIHEJlfa4HvNp_iO-11" value="" style="endArrow=none;dashed=1;html=1;rounded=0;entryX=0.543;entryY=0.8;entryDx=0;entryDy=0;entryPerimeter=0;fontSize=14;" edge="1" parent="1" source="yRFhUIHEJlfa4HvNp_iO-9" target="yRFhUIHEJlfa4HvNp_iO-2">
          <mxGeometry width="50" height="50" relative="1" as="geometry">
            <mxPoint x="355" y="380" as="sourcePoint" />
            <mxPoint x="325" y="290" as="targetPoint" />
          </mxGeometry>
        </mxCell>
        <mxCell id="yRFhUIHEJlfa4HvNp_iO-12" value="" style="endArrow=none;dashed=1;html=1;rounded=0;exitX=1.002;exitY=0.455;exitDx=0;exitDy=0;exitPerimeter=0;" edge="1" parent="1" source="yRFhUIHEJlfa4HvNp_iO-1">
          <mxGeometry width="50" height="50" relative="1" as="geometry">
            <mxPoint x="500" y="340" as="sourcePoint" />
            <mxPoint x="660" y="330" as="targetPoint" />
          </mxGeometry>
        </mxCell>
      </root>
    </mxGraphModel>
  </diagram>
</mxfile>
